<svg height="512pt" viewBox="0 0 512 512" width="512pt" xmlns="http://www.w3.org/2000/svg"><path d="m463 379.667969v-74.667969h-192v-56.332031h107.664062c34.738282 0 63-28.261719 63-63 0-21.242188-10.550781-40.628907-27.679687-52.191407.675781-4.785156 1.015625-9.621093 1.015625-14.476562 0-56.792969-46.207031-103-103-103-13.039062 0-26.019531 2.5-38.078125 7.285156-17.5625-14.902344-40.074219-23.285156-63.253906-23.285156-53.855469 0-97.667969 43.8125-97.667969 97.667969 0 .609375.007812 1.222656.019531 1.835937-25.941406 13.40625-42.683593 40.304688-42.683593 70.164063 0 43.558593 35.4375 79 79 79h91.664062v56.332031h-192v74.667969h-49v132.332031h132.332031v-132.332031h-53.332031v-44.667969h162v44.667969h-51.164062v132.332031h132.332031v-132.332031h-51.167969v-44.667969h162v44.667969h-53.335938v132.332031h132.335938v-132.332031zm-329.386719-256.40625 11.738281-3.976563-1.691406-12.28125c-.4375-3.175781-.660156-6.316406-.660156-9.335937 0-37.3125 30.355469-67.667969 67.667969-67.667969 18.878906 0 36.40625 7.601562 49.351562 21.402344l7.828125 8.347656 10.121094-5.34375c10.558594-5.578125 22.007812-8.40625 34.03125-8.40625 40.253906 0 73 32.746094 73 73 0 6.28125-.800781 12.523438-2.378906 18.554688l-3.304688 12.617187 12.039063 5.023437c12.339843 5.148438 20.308593 17.109376 20.308593 30.46875 0 18.199219-14.800781 33-33 33h-229.332031c-27.019531 0-49-21.980468-49-49 .003907-21.011718 13.375-39.664062 33.28125-46.402343zm-31.277343 358.738281h-72.335938v-72.332031h72.335938zm189.832031 0h-72.332031v-72.332031h72.332031zm189.832031 0h-72.335938v-72.332031h72.335938zm0 0"/></svg>